<?xml version="1.0" encoding="UTF-8" standalone="no"?>
<svg
   xmlns:dc="http://purl.org/dc/elements/1.1/"
   xmlns:cc="http://creativecommons.org/ns#"
   xmlns:rdf="http://www.w3.org/1999/02/22-rdf-syntax-ns#"
   xmlns:svg="http://www.w3.org/2000/svg"
   xmlns="http://www.w3.org/2000/svg"
   viewBox="0 0 194.15781 47.852856"
   height="47.852856"
   width="194.15781"
   xml:space="preserve"
   version="1.1"
   id="svg4828"><metadata
     id="metadata4834"><rdf:RDF><cc:Work
         rdf:about=""><dc:format>image/svg+xml</dc:format><dc:type
           rdf:resource="http://purl.org/dc/dcmitype/StillImage" /><dc:title></dc:title></cc:Work></rdf:RDF></metadata><defs
     id="defs4832" /><g
     transform="matrix(1.25,0,0,-1.25,0,47.852855)"
     id="g4836"><g
       id="g4838"><text
         id="text4840"
         style="font-variant:normal;font-weight:normal;font-size:72px;font-family:'To The Point';-inkscape-font-specification:ToThePoint;writing-mode:lr-tb;fill:#b700e6;fill-opacity:1;fill-rule:nonzero;stroke:none"
         transform="matrix(1,0,0,-1,-0.411998,2.346282)"><tspan
           id="tspan4842"
           y="0"
           x="0">M</tspan></text>
<g
         transform="matrix(1,0,0,-1,0,38.282284)"
         id="g4844"><path
           id="path4846"
           style="fill:none;stroke:#b700e6;stroke-width:1;stroke-linecap:butt;stroke-linejoin:miter;stroke-miterlimit:4;stroke-dasharray:none;stroke-opacity:1"
           d="m 35.449,16.5 c 0,1.344 -0.015,2.668 -0.047,3.969 -0.023,1.293 -0.054,2.609 -0.093,3.953 0,1.25 -0.016,2.512 -0.047,3.781 -0.024,1.274 -0.059,2.531 -0.11,3.781 0,0.375 0,0.821 0,1.328 0,0.5 -0.047,0.961 -0.14,1.376 -0.094,0.406 -0.297,0.718 -0.61,0.937 -0.312,0.211 -0.757,0.195 -1.328,-0.047 -0.293,-0.094 -0.539,-0.269 -0.734,-0.531 -0.188,-0.27 -0.328,-0.551 -0.422,-0.844 -0.094,-0.332 -0.133,-0.656 -0.109,-0.969 0.019,-0.312 0.031,-0.609 0.031,-0.89 0.101,-1.727 0.203,-3.457 0.297,-5.188 0.093,-1.726 0.187,-3.457 0.281,-5.187 0.094,-1.77 0.141,-3.531 0.141,-5.281 0,-1.758 0.023,-3.524 0.078,-5.297 0,-1.102 -0.039,-2.219 -0.11,-3.344 C 32.453,6.914 32.129,5.867 31.559,4.906 31.223,4.336 30.84,3.953 30.402,3.766 29.973,3.57 29.52,3.516 29.043,3.609 c -0.481,0.094 -0.949,0.297 -1.406,0.61 -0.461,0.312 -0.856,0.687 -1.188,1.125 -1.437,1.625 -2.687,3.461 -3.75,5.5 -1.054,2.043 -1.699,4.168 -1.937,6.375 -0.242,1.824 -0.469,3.648 -0.688,5.469 -0.219,1.824 -0.449,3.648 -0.687,5.468 -0.043,0.242 -0.09,0.496 -0.141,0.766 -0.055,0.262 -0.125,0.512 -0.219,0.75 -0.148,0.242 -0.328,0.433 -0.547,0.578 -0.21,0.148 -0.433,0.195 -0.671,0.141 -0.532,0 -0.918,-0.332 -1.157,-1 -0.187,-0.625 -0.25,-1.321 -0.187,-2.094 0.07,-0.77 0.109,-1.488 0.109,-2.156 0,-0.864 -0.012,-1.711 -0.031,-2.547 C 16.52,21.75 16.484,20.918 16.434,20.094 16.34,18.469 16.191,16.855 15.996,15.25 15.809,13.637 15.574,12.039 15.293,10.453 15.145,9.258 14.832,8.172 14.355,7.203 13.824,6.246 13.078,5.648 12.121,5.406 11.16,5.168 10.25,5.434 9.387,6.203 8.668,6.871 8.062,7.758 7.574,8.859 c -0.906,2.024 -1.508,4.028 -1.797,6.016 -0.281,1.992 -0.39,3.996 -0.328,6.016 0.071,2.011 0.239,4.039 0.5,6.078 0.27,2.043 0.524,4.093 0.766,6.156 0.051,0.293 0.078,0.586 0.078,0.875 0,0.281 -0.047,0.57 -0.141,0.859 -0.105,0.387 -0.351,0.68 -0.734,0.875 C 5.543,35.922 5.16,35.941 4.777,35.797 4.484,35.652 4.238,35.402 4.043,35.047 3.855,34.684 3.715,34.289 3.621,33.859 3.527,33.422 3.465,32.992 3.434,32.562 3.41,32.125 3.379,31.762 3.34,31.469 2.953,27.824 2.543,24.168 2.105,20.5 1.676,16.824 1.199,13.184 0.668,9.578 0.625,9.297 0.578,9.016 0.527,8.734 0.473,8.445 0.5,8.172 0.605,7.922 0.738,7.258 1.074,6.902 1.605,6.859 2.137,6.809 2.594,7.023 2.98,7.5 3.113,7.688 3.23,7.938 3.324,8.25 3.426,8.562 3.527,8.84 3.621,9.078 3.715,9.32 3.832,9.5 3.98,9.625 4.125,9.742 4.316,9.703 4.559,9.516 4.797,9.32 5.035,8.934 5.277,8.359 5.516,7.789 5.754,7.355 5.996,7.062 6.672,6.055 7.527,5.094 8.559,4.188 9.59,3.273 10.676,2.695 11.824,2.453 c 0.719,-0.144 1.352,-0.109 1.906,0.109 0.551,0.219 1.04,0.559 1.469,1.016 0.438,0.449 0.813,0.977 1.125,1.578 0.313,0.606 0.586,1.219 0.828,1.844 0.196,0.523 0.352,1.074 0.469,1.656 0.125,0.574 0.234,1.149 0.328,1.719 0.051,0.148 0.078,0.375 0.078,0.687 0,0.313 0.02,0.626 0.063,0.938 0.051,0.312 0.113,0.617 0.187,0.906 0.071,0.282 0.18,0.469 0.328,0.563 0.282,0.242 0.551,0.203 0.813,-0.11 0.27,-0.312 0.523,-0.718 0.766,-1.218 0.238,-0.5 0.453,-1 0.64,-1.5 0.196,-0.508 0.344,-0.864 0.438,-1.063 0.812,-1.582 1.851,-3.187 3.125,-4.812 1.281,-1.633 2.711,-2.86 4.297,-3.672 1.289,-0.676 2.332,-0.785 3.125,-0.328 0.789,0.461 1.425,1.168 1.906,2.125 0.476,0.961 0.812,2.054 1,3.281 0.195,1.219 0.344,2.262 0.437,3.125 0.102,1.199 0.164,2.402 0.188,3.609 0.019,1.199 0.055,2.399 0.109,3.594 z" /></g><text
         id="text4848"
         style="font-variant:normal;font-weight:normal;font-size:72px;font-family:'To The Point';-inkscape-font-specification:ToThePoint;writing-mode:lr-tb;fill:#b700e6;fill-opacity:1;fill-rule:nonzero;stroke:none"
         transform="matrix(1,0,0,-1,36.853627,2.346282)"><tspan
           id="tspan4850"
           y="0"
           x="0">o</tspan></text>
<g
         transform="matrix(1,0,0,-1,0,38.282284)"
         id="g4852"><path
           id="path4854"
           style="fill:none;stroke:#b700e6;stroke-width:1;stroke-linecap:butt;stroke-linejoin:miter;stroke-miterlimit:4;stroke-dasharray:none;stroke-opacity:1"
           d="m 37.293,28.812 c 0,-0.863 0.082,-1.765 0.25,-2.703 0.164,-0.937 0.367,-1.836 0.609,-2.703 0.239,-0.863 0.5,-1.676 0.782,-2.437 0.289,-0.77 0.582,-1.442 0.875,-2.016 0.382,-0.726 0.789,-1.426 1.218,-2.094 0.438,-0.675 0.942,-1.3 1.516,-1.875 1.676,-1.582 3.547,-2.035 5.609,-1.359 1.063,0.375 1.852,1.031 2.375,1.969 0.532,0.937 0.942,1.886 1.235,2.844 0.476,1.542 0.789,3.335 0.937,5.374 0.145,2.032 -0.047,3.965 -0.578,5.797 -0.531,1.825 -1.469,3.36 -2.812,4.61 -1.344,1.242 -3.262,1.812 -5.75,1.719 -1.157,-0.051 -2.133,-0.282 -2.922,-0.688 -0.793,-0.406 -1.446,-0.93 -1.953,-1.578 -0.5,-0.645 -0.86,-1.391 -1.079,-2.234 -0.21,-0.844 -0.312,-1.719 -0.312,-2.626 z m 13.094,-4.109 c 0.051,-0.863 0.062,-1.726 0.031,-2.594 -0.023,-0.863 -0.152,-1.703 -0.391,-2.515 -0.148,-0.625 -0.437,-1.367 -0.875,-2.235 -0.429,-0.863 -1.07,-1.343 -1.922,-1.437 -0.625,0 -1.25,0.195 -1.875,0.578 -1.062,0.668 -1.917,1.543 -2.562,2.625 -0.648,1.086 -1.188,2.18 -1.625,3.281 -0.281,0.762 -0.543,1.649 -0.781,2.656 -0.242,1.012 -0.352,2.024 -0.328,3.032 0.019,1 0.207,1.933 0.562,2.797 0.363,0.867 1.031,1.562 2,2.093 0.863,0.481 1.785,0.618 2.766,0.407 0.988,-0.219 1.863,-0.618 2.625,-1.203 0.476,-0.376 0.875,-0.813 1.187,-1.313 0.313,-0.508 0.539,-1.039 0.688,-1.594 0.144,-0.551 0.238,-1.113 0.281,-1.687 0.051,-0.582 0.102,-1.16 0.156,-1.735 0.039,-0.195 0.063,-0.39 0.063,-0.578 0,-0.187 0,-0.379 0,-0.578 z" /></g><text
         id="text4856"
         style="font-variant:normal;font-weight:normal;font-size:72px;font-family:'To The Point';-inkscape-font-specification:ToThePoint;writing-mode:lr-tb;fill:#1ac922;fill-opacity:1;fill-rule:nonzero;stroke:none"
         transform="matrix(1,0,0,-1,53.988002,2.346282)"><tspan
           id="tspan4858"
           y="0"
           x="0">J</tspan></text>
<g
         transform="matrix(1,0,0,-1,0,38.282284)"
         id="g4860"><path
           id="path4862"
           style="fill:none;stroke:#1ac922;stroke-width:1;stroke-linecap:butt;stroke-linejoin:miter;stroke-miterlimit:4;stroke-dasharray:none;stroke-opacity:1"
           d="m 68.316,0.797 c 0.383,0 0.789,-0.008 1.219,-0.031 0.438,-0.02 0.867,-0.032 1.297,-0.032 0.863,-0.05 1.711,-0.113 2.547,-0.187 0.844,-0.07 1.695,-0.063 2.562,0.031 0.383,0.055 0.782,0.133 1.188,0.234 0.414,0.094 0.742,0.282 0.984,0.563 0.239,0.387 0.332,0.727 0.282,1.016 -0.043,0.281 -0.188,0.531 -0.438,0.75 C 77.715,3.359 77.414,3.516 77.051,3.609 76.695,3.703 76.379,3.73 76.098,3.688 74.848,3.586 73.586,3.477 72.316,3.359 71.043,3.234 69.785,3.293 68.535,3.531 68.004,3.637 67.652,3.844 67.488,4.156 67.32,4.469 67.246,4.828 67.27,5.234 c 0.019,0.407 0.101,0.852 0.25,1.328 0.144,0.481 0.242,0.915 0.296,1.297 0.383,2.493 0.829,4.985 1.329,7.485 0.5,2.5 0.726,5.023 0.687,7.562 -0.055,0.918 -0.117,1.903 -0.187,2.953 -0.075,1.055 -0.243,2.11 -0.5,3.172 -0.262,1.055 -0.622,2.059 -1.079,3.016 -0.461,0.961 -1.093,1.75 -1.906,2.375 -0.68,0.586 -1.496,1.008 -2.453,1.266 C 62.746,35.945 61.789,36.051 60.832,36 59.871,35.957 58.934,35.773 58.02,35.438 57.102,35.094 56.336,34.617 55.723,34 55.48,33.762 55.262,33.477 55.066,33.141 c -0.187,-0.344 -0.281,-0.707 -0.281,-1.094 0,-0.383 0.141,-0.719 0.422,-1 0.289,-0.289 0.629,-0.41 1.016,-0.359 0.531,0 0.898,0.195 1.109,0.578 0.219,0.375 0.445,0.734 0.688,1.078 0.675,0.668 1.539,1.047 2.593,1.14 0.957,0.106 1.907,-0.023 2.844,-0.39 0.938,-0.364 1.664,-0.926 2.188,-1.688 0.382,-0.582 0.66,-1.179 0.828,-1.797 0.175,-0.625 0.312,-1.25 0.406,-1.875 0.281,-1.925 0.383,-3.812 0.312,-5.656 -0.062,-1.844 -0.214,-3.75 -0.453,-5.719 -0.105,-1.101 -0.23,-2.234 -0.375,-3.39 C 66.227,11.812 66.039,10.664 65.801,9.516 65.602,8.703 65.383,7.891 65.145,7.078 64.902,6.258 64.449,5.559 63.785,4.984 63.348,4.602 62.871,4.371 62.363,4.297 61.863,4.227 61.348,4.234 60.816,4.328 60.293,4.422 59.777,4.57 59.27,4.766 c -0.5,0.187 -0.993,0.328 -1.469,0.422 -0.281,0.054 -0.617,0.105 -1,0.156 -0.387,0.043 -0.762,0.043 -1.125,0 C 55.32,5.293 55.023,5.184 54.785,5.016 54.543,4.852 54.426,4.547 54.426,4.109 c 0,-0.425 0.164,-0.785 0.5,-1.078 0.332,-0.289 0.738,-0.531 1.219,-0.719 0.476,-0.187 0.968,-0.328 1.468,-0.421 0.508,-0.102 0.93,-0.176 1.266,-0.219 3.219,-0.383 6.363,-0.676 9.437,-0.875 z" /></g><text
         id="text4864"
         style="font-variant:normal;font-weight:normal;font-size:72px;font-family:'To The Point';-inkscape-font-specification:ToThePoint;writing-mode:lr-tb;fill:#1ac922;fill-opacity:1;fill-rule:nonzero;stroke:none"
         transform="matrix(1,0,0,-1,72.831752,2.346282)"><tspan
           id="tspan4866"
           y="0"
           x="0">a</tspan></text>
<g
         transform="matrix(1,0,0,-1,0,38.282284)"
         id="g4868"><path
           id="path4870"
           style="fill:none;stroke:#1ac922;stroke-width:1;stroke-linecap:butt;stroke-linejoin:miter;stroke-miterlimit:4;stroke-dasharray:none;stroke-opacity:1"
           d="m 84.129,23.188 c -0.094,1.874 -0.094,3.796 0,5.765 0,0.336 0,0.731 0,1.188 0,0.461 0.023,0.918 0.078,1.375 0.051,0.449 0.109,0.89 0.172,1.328 0.07,0.429 0.234,0.789 0.484,1.078 0.133,0.242 0.297,0.469 0.485,0.687 0.195,0.211 0.367,0.438 0.515,0.688 0.145,0.242 0.254,0.5 0.328,0.781 0.071,0.289 0.055,0.555 -0.046,0.797 -0.188,0.477 -0.571,0.766 -1.141,0.859 -0.774,0.145 -1.359,-0.046 -1.766,-0.578 -0.406,-0.523 -0.73,-1.094 -0.968,-1.718 -0.149,-0.532 -0.247,-1.055 -0.297,-1.579 -0.043,-0.531 -0.184,-1.062 -0.422,-1.593 -0.106,-0.239 -0.156,-0.414 -0.156,-0.532 0,-0.125 -0.122,-0.16 -0.36,-0.109 -0.387,0 -0.746,0.266 -1.078,0.797 -0.336,0.523 -0.594,0.902 -0.781,1.14 -0.387,0.575 -0.883,1.137 -1.485,1.688 -0.605,0.555 -1.289,0.781 -2.046,0.688 -0.868,-0.094 -1.434,-0.508 -1.704,-1.25 -0.261,-0.75 -0.418,-1.485 -0.468,-2.204 -0.094,-2.5 0.05,-5.007 0.437,-7.531 0.383,-2.519 1.102,-4.93 2.156,-7.234 0.239,-0.531 0.524,-1.055 0.86,-1.578 0.344,-0.532 0.726,-1.008 1.156,-1.438 0.289,-0.289 0.695,-0.566 1.219,-0.828 0.531,-0.27 1.07,-0.441 1.625,-0.516 0.551,-0.07 1.066,-0.035 1.547,0.11 0.488,0.148 0.875,0.461 1.156,0.937 0.332,0.532 0.5,1.074 0.5,1.625 0,0.555 0,1.094 0,1.625 l 0,5.532 z m -2.734,-2.954 c 0,-0.425 -0.012,-0.972 -0.032,-1.64 -0.023,-0.676 -0.105,-1.274 -0.25,-1.797 -0.148,-0.531 -0.34,-0.926 -0.578,-1.188 -0.242,-0.269 -0.574,-0.211 -1,0.172 -0.68,0.625 -1.211,1.313 -1.594,2.063 -0.386,0.742 -0.718,1.515 -1,2.328 -0.625,1.875 -1.039,3.762 -1.234,5.656 -0.187,1.899 -0.234,3.805 -0.141,5.719 0,0.293 0.047,0.586 0.141,0.875 0.102,0.281 0.297,0.469 0.578,0.562 0.477,0.094 0.891,0 1.235,-0.281 0.332,-0.289 0.617,-0.629 0.859,-1.015 1.051,-1.583 1.781,-3.297 2.187,-5.141 0.414,-1.852 0.692,-3.692 0.829,-5.516 l 0,-0.797 z" /></g><text
         id="text4872"
         style="font-variant:normal;font-weight:normal;font-size:72px;font-family:'To The Point';-inkscape-font-specification:ToThePoint;writing-mode:lr-tb;fill:#1ac922;fill-opacity:1;fill-rule:nonzero;stroke:none"
         transform="matrix(1,0,0,-1,86.753627,2.346282)"><tspan
           id="tspan4874"
           y="0"
           x="0">m</tspan></text>
<g
         transform="matrix(1,0,0,-1,0,38.282284)"
         id="g4876"><path
           id="path4878"
           style="fill:none;stroke:#1ac922;stroke-width:1;stroke-linecap:butt;stroke-linejoin:miter;stroke-miterlimit:4;stroke-dasharray:none;stroke-opacity:1"
           d="m 91.723,29.391 c 0,0.386 0,0.734 0,1.047 0,0.304 0.023,0.624 0.078,0.968 0,0.524 0.066,1.059 0.203,1.61 0.144,0.554 0.125,1.093 -0.063,1.625 -0.148,0.48 -0.476,0.867 -0.984,1.156 -0.5,0.281 -0.992,0.207 -1.469,-0.219 C 89.246,35.34 89.09,35.055 89.02,34.719 88.945,34.375 88.887,34.039 88.848,33.703 88.742,32.453 88.652,31.23 88.582,30.031 88.52,28.836 88.414,27.637 88.27,26.438 88.176,25.762 88.09,25.125 88.02,24.531 87.945,23.93 87.863,23.293 87.77,22.625 87.664,22.137 87.512,21.594 87.316,21 c -0.187,-0.602 -0.211,-1.145 -0.062,-1.625 0.094,-0.332 0.285,-0.609 0.578,-0.828 0.289,-0.219 0.629,-0.274 1.016,-0.172 0.238,0.094 0.425,0.277 0.562,0.547 0.145,0.262 0.27,0.512 0.375,0.75 0.039,0.137 0.11,0.34 0.203,0.609 0.102,0.262 0.211,0.465 0.328,0.61 0.125,0.148 0.254,0.218 0.391,0.218 0.145,0 0.289,-0.191 0.438,-0.578 0.289,-0.57 0.648,-1.301 1.078,-2.187 0.437,-0.895 0.953,-1.723 1.547,-2.485 0.601,-0.769 1.285,-1.394 2.046,-1.875 0.77,-0.488 1.633,-0.66 2.594,-0.515 0.969,0.148 1.664,0.64 2.094,1.484 0.437,0.836 0.75,1.617 0.937,2.344 0.094,0.48 0.176,0.949 0.25,1.406 0.071,0.449 0.157,0.914 0.25,1.391 0,0.148 0.008,0.437 0.032,0.875 0.031,0.429 0.093,0.843 0.187,1.25 0.094,0.406 0.235,0.711 0.422,0.906 0.195,0.187 0.461,0.141 0.797,-0.141 0.238,-0.195 0.422,-0.453 0.547,-0.765 0.125,-0.313 0.254,-0.586 0.39,-0.828 0.383,-0.719 0.805,-1.411 1.266,-2.079 0.457,-0.675 0.926,-1.347 1.406,-2.015 0.332,-0.531 0.676,-1.008 1.032,-1.438 0.363,-0.437 0.785,-0.8 1.265,-1.093 0.77,-0.52 1.61,-0.735 2.516,-0.641 0.914,0.094 1.613,0.574 2.094,1.437 0.195,0.387 0.316,0.762 0.359,1.126 0.051,0.355 0.098,0.726 0.141,1.109 0.25,1.68 0.441,3.344 0.578,5 0.144,1.656 0.289,3.324 0.437,5 0.094,1.012 0.176,2.031 0.25,3.062 0.07,1.032 0.156,2.055 0.25,3.063 0.051,0.387 0.039,0.797 -0.031,1.234 -0.074,0.43 -0.305,0.762 -0.688,1 -0.386,0.188 -0.773,0.196 -1.156,0.032 -0.375,-0.168 -0.683,-0.415 -0.922,-0.75 -0.25,-0.29 -0.402,-0.614 -0.453,-0.969 -0.043,-0.364 -0.062,-0.739 -0.062,-1.125 -0.094,-2.395 -0.203,-4.754 -0.328,-7.078 -0.118,-2.332 -0.219,-4.676 -0.313,-7.032 0,-0.289 -0.027,-0.593 -0.078,-0.906 -0.043,-0.312 -0.184,-0.586 -0.422,-0.828 -0.492,-0.52 -1.023,-0.586 -1.594,-0.203 -0.574,0.375 -1.125,0.914 -1.656,1.609 -0.531,0.699 -1,1.434 -1.406,2.203 -0.406,0.762 -0.684,1.266 -0.828,1.516 -0.668,1.344 -1.121,2.68 -1.36,4 -0.242,1.313 -0.531,2.668 -0.875,4.063 -0.093,0.374 -0.179,0.773 -0.25,1.187 -0.074,0.406 -0.25,0.73 -0.531,0.969 -0.336,0.293 -0.711,0.429 -1.125,0.406 -0.406,-0.031 -0.73,-0.238 -0.969,-0.625 -0.242,-0.383 -0.324,-0.891 -0.25,-1.516 0.071,-0.625 0.11,-1.175 0.11,-1.656 0,-0.625 -0.028,-1.234 -0.078,-1.828 -0.043,-0.602 -0.11,-1.238 -0.204,-1.906 -0.105,-0.821 -0.242,-1.649 -0.406,-2.485 -0.168,-0.843 -0.371,-1.672 -0.609,-2.484 -0.149,-0.625 -0.321,-1.391 -0.516,-2.297 -0.187,-0.914 -0.57,-1.566 -1.14,-1.953 -0.868,-0.57 -1.637,-0.508 -2.313,0.188 -0.668,0.687 -1.23,1.601 -1.687,2.734 -0.45,1.125 -0.821,2.266 -1.11,3.422 -0.293,1.148 -0.461,1.914 -0.5,2.297 -0.293,1.437 -0.437,2.855 -0.437,4.25 z" /></g><text
         id="text4880"
         style="font-variant:normal;font-weight:normal;font-size:72px;font-family:'To The Point';-inkscape-font-specification:ToThePoint;writing-mode:lr-tb;fill:#1ac922;fill-opacity:1;fill-rule:nonzero;stroke:none"
         transform="matrix(1,0,0,-1,116.4255,2.346282)"><tspan
           id="tspan4882"
           y="0"
           x="0">b</tspan></text>
<g
         transform="matrix(1,0,0,-1,0,38.282284)"
         id="g4884"><path
           id="path4886"
           style="fill:none;stroke:#1ac922;stroke-width:1;stroke-linecap:butt;stroke-linejoin:miter;stroke-miterlimit:4;stroke-dasharray:none;stroke-opacity:1"
           d="m 126.801,33.781 c -0.867,0.625 -1.731,1.106 -2.594,1.438 -0.625,0.293 -1.266,0.5 -1.922,0.625 -0.648,0.113 -1.305,0.097 -1.969,-0.047 -0.961,-0.145 -1.679,-0.695 -2.156,-1.656 -0.531,-0.957 -0.789,-1.961 -0.765,-3.016 0.031,-1.063 0.046,-2.117 0.046,-3.172 0.039,-1.301 0.063,-2.586 0.063,-3.859 0,-1.27 0.023,-2.555 0.078,-3.86 0.039,-2.488 0.023,-4.968 -0.047,-7.437 -0.062,-2.477 -0.047,-4.961 0.047,-7.453 0,-0.239 -0.016,-0.625 -0.047,-1.156 -0.023,-0.532 -0.023,-1.047 0,-1.547 0.031,-0.508 0.141,-0.942 0.328,-1.297 0.196,-0.364 0.508,-0.492 0.938,-0.391 0.625,0.094 0.984,0.383 1.078,0.859 0.094,0.481 0.141,0.961 0.141,1.438 l 0,3.953 c -0.043,1.344 -0.063,2.668 -0.063,3.969 0,1.293 -0.027,2.609 -0.078,3.953 0,0.242 0.008,0.469 0.031,0.687 0.031,0.219 0.117,0.45 0.266,0.688 0.238,0.387 0.523,0.543 0.859,0.469 0.332,-0.071 0.676,-0.239 1.031,-0.5 0.364,-0.27 0.704,-0.582 1.016,-0.938 0.313,-0.363 0.566,-0.617 0.766,-0.765 0.57,-0.52 1.254,-0.891 2.047,-1.11 0.789,-0.218 1.57,-0.207 2.343,0.032 0.957,0.242 1.77,0.781 2.438,1.624 0.676,0.836 1.133,1.684 1.375,2.547 0.238,1.106 0.359,2.164 0.359,3.172 0.051,1.438 -0.094,2.891 -0.437,4.36 -0.336,1.461 -0.836,2.859 -1.5,4.203 -0.438,0.867 -0.969,1.648 -1.594,2.344 -0.625,0.699 -1.32,1.312 -2.078,1.843 z m -5.844,-2.015 c 0.477,0.187 0.891,0.281 1.234,0.281 0.571,0 1.207,-0.129 1.907,-0.391 0.695,-0.269 1.332,-0.617 1.906,-1.047 0.426,-0.332 0.844,-0.785 1.25,-1.359 0.414,-0.582 0.801,-1.242 1.156,-1.984 0.363,-0.75 0.664,-1.532 0.906,-2.344 0.239,-0.813 0.379,-1.629 0.422,-2.453 0.102,-2.25 -0.57,-3.758 -2.015,-4.531 -0.719,-0.426 -1.559,-0.52 -2.516,-0.282 -0.906,0.242 -1.699,0.746 -2.375,1.516 -0.668,0.762 -1.219,1.656 -1.656,2.687 -0.43,1.032 -0.75,2.172 -0.969,3.422 -0.219,1.25 -0.352,2.477 -0.391,3.672 -0.054,0.813 0.051,1.438 0.313,1.875 0.269,0.43 0.547,0.742 0.828,0.938 z" /></g><text
         id="text4888"
         style="font-variant:normal;font-weight:normal;font-size:72px;font-family:'To The Point';-inkscape-font-specification:ToThePoint;writing-mode:lr-tb;fill:#1ac922;fill-opacity:1;fill-rule:nonzero;stroke:none"
         transform="matrix(1,0,0,-1,133.44113,2.346282)"><tspan
           id="tspan4890"
           y="0"
           x="0">o</tspan></text>
<g
         transform="matrix(1,0,0,-1,0,38.282284)"
         id="g4892"><path
           id="path4894"
           style="fill:none;stroke:#1ac922;stroke-width:1;stroke-linecap:butt;stroke-linejoin:miter;stroke-miterlimit:4;stroke-dasharray:none;stroke-opacity:1"
           d="m 133.879,28.812 c 0,-0.863 0.082,-1.765 0.25,-2.703 0.164,-0.937 0.367,-1.836 0.609,-2.703 0.239,-0.863 0.5,-1.676 0.782,-2.437 0.289,-0.77 0.582,-1.442 0.875,-2.016 0.382,-0.726 0.789,-1.426 1.218,-2.094 0.438,-0.675 0.942,-1.3 1.516,-1.875 1.676,-1.582 3.547,-2.035 5.609,-1.359 1.063,0.375 1.852,1.031 2.375,1.969 0.532,0.937 0.942,1.886 1.235,2.844 0.476,1.542 0.789,3.335 0.937,5.374 0.145,2.032 -0.047,3.965 -0.578,5.797 -0.531,1.825 -1.469,3.36 -2.812,4.61 -1.344,1.242 -3.262,1.812 -5.75,1.719 -1.157,-0.051 -2.133,-0.282 -2.922,-0.688 -0.793,-0.406 -1.446,-0.93 -1.953,-1.578 -0.5,-0.645 -0.86,-1.391 -1.079,-2.234 -0.211,-0.844 -0.312,-1.719 -0.312,-2.626 z m 13.094,-4.109 c 0.05,-0.863 0.062,-1.726 0.031,-2.594 -0.024,-0.863 -0.152,-1.703 -0.391,-2.515 -0.148,-0.625 -0.437,-1.367 -0.875,-2.235 -0.429,-0.863 -1.07,-1.343 -1.922,-1.437 -0.625,0 -1.25,0.195 -1.875,0.578 -1.062,0.668 -1.918,1.543 -2.562,2.625 -0.649,1.086 -1.188,2.18 -1.625,3.281 -0.281,0.762 -0.543,1.649 -0.781,2.656 -0.243,1.012 -0.352,2.024 -0.328,3.032 0.019,1 0.207,1.933 0.562,2.797 0.363,0.867 1.031,1.562 2,2.093 0.863,0.481 1.785,0.618 2.766,0.407 0.988,-0.219 1.863,-0.618 2.625,-1.203 0.476,-0.376 0.875,-0.813 1.187,-1.313 0.313,-0.508 0.539,-1.039 0.688,-1.594 0.144,-0.551 0.238,-1.113 0.281,-1.687 0.051,-0.582 0.101,-1.16 0.156,-1.735 0.039,-0.195 0.063,-0.39 0.063,-0.578 0,-0.187 0,-0.379 0,-0.578 z" /></g><text
         id="text4896"
         style="font-variant:normal;font-weight:normal;font-size:72px;font-family:'To The Point';-inkscape-font-specification:ToThePoint;writing-mode:lr-tb;fill:#1ac922;fill-opacity:1;fill-rule:nonzero;stroke:none"
         transform="matrix(1,0,0,-1,149.89425,2.346282)"><tspan
           id="tspan4898"
           y="0"
           x="0">!</tspan></text>
<g
         transform="matrix(1,0,0,-1,0,38.282284)"
         id="g4900"><path
           id="path4902"
           style="fill:none;stroke:#1ac922;stroke-width:1;stroke-linecap:butt;stroke-linejoin:miter;stroke-miterlimit:4;stroke-dasharray:none;stroke-opacity:1"
           d="m 151.191,12.75 c 0,-1.289 0,-2.598 0,-3.922 0,-1.32 -0.027,-2.629 -0.078,-3.922 0,-0.531 0.008,-1.117 0.032,-1.765 0.031,-0.645 0.164,-1.235 0.406,-1.766 0.187,-0.531 0.547,-0.797 1.078,-0.797 0.437,0 0.738,0.258 0.906,0.766 0.164,0.5 0.27,1.101 0.313,1.797 0.05,0.699 0.062,1.371 0.031,2.015 -0.024,0.649 -0.031,1.09 -0.031,1.328 0.05,1.969 0.078,3.903 0.078,5.797 0,1.899 0,3.828 0,5.797 0,0.336 0.035,0.969 0.109,1.906 0.07,0.938 0.07,1.875 0,2.813 -0.074,0.937 -0.258,1.695 -0.547,2.265 -0.281,0.575 -0.781,0.672 -1.5,0.297 -0.343,-0.195 -0.59,-0.535 -0.734,-1.015 -0.137,-0.477 -0.219,-0.977 -0.25,-1.5 -0.024,-0.532 -0.012,-1.063 0.031,-1.594 0.051,-0.531 0.078,-0.961 0.078,-1.297 -0.043,-1.195 -0.043,-2.394 0,-3.594 0.051,-1.207 0.078,-2.41 0.078,-3.609 z m 1.36,18.938 c 0.488,-0.04 0.945,0.07 1.375,0.328 0.437,0.261 0.722,0.703 0.859,1.328 0.102,0.531 0.008,1.054 -0.281,1.562 -0.293,0.5 -0.699,0.844 -1.219,1.032 -0.531,0.144 -1.062,0.097 -1.594,-0.141 -0.523,-0.238 -0.906,-0.625 -1.156,-1.156 -0.336,-0.813 -0.25,-1.485 0.25,-2.016 0.508,-0.531 1.098,-0.844 1.766,-0.937 z" /></g></g></g></svg>